<svg xmlns="http://www.w3.org/2000/svg" width="90.15" height="90.15"><defs><clipPath id="clip-path"><path id="Path_21" data-name="Path 21" d="M0 0h90.15v-90.15H0z" fill="none"/></clipPath><clipPath id="clip-path-2"><path id="Path_23" data-name="Path 23" d="M.75-45.075A44.325 44.325 0 0045.075-.75 44.325 44.325 0 0089.4-45.075 44.325 44.325 0 0045.075-89.4 44.325 44.325 0 00.75-45.075" fill="none"/></clipPath></defs><g id="Component_20_1" data-name="Component 20 – 1" transform="translate(0 90.15)"><g id="Group_25" data-name="Group 25" clip-path="url(#clip-path)"><g id="Group_24" data-name="Group 24" transform="translate(45.075 -.75)"><path id="Path_20" data-name="Path 20" d="M0 0a44.325 44.325 0 0044.325-44.325A44.325 44.325 0 000-88.65a44.325 44.325 0 00-44.325 44.325A44.325 44.325 0 000 0" fill="#b81d23"/></g></g><g id="Group_27" data-name="Group 27" clip-path="url(#clip-path-2)"><g id="Group_26" data-name="Group 26" transform="translate(51.147 14.638)"><path id="Path_22" data-name="Path 22" d="M0 0c-1.051.114-24.321-4.444-24.321-4.444L-27.209-66.9l-50.416 14.675c-.036-.258-4.309-19.322-4.309-19.322l54.122-11.719-.808-22.27 12.083-.516 3.152 19.659 67.033-14.515c0 .072.078.2.313.44.668.668 5.059 8.248 5.059 8.248l-70.811 20.61L-.9-8.555a.077.077 0 01-.022.006" fill="#881512" stroke="#881512" stroke-width=".546"/></g></g><g id="Group_31" data-name="Group 31" clip-path="url(#clip-path)"><g id="Group_28" data-name="Group 28" transform="translate(45.075 -.75)"><path id="Path_24" data-name="Path 24" d="M0 0a44.325 44.325 0 0044.325-44.325A44.325 44.325 0 000-88.65a44.325 44.325 0 00-44.325 44.325A44.325 44.325 0 000 0z" fill="none" stroke="#fff" stroke-width="1.5"/></g><g id="Group_29" data-name="Group 29" transform="translate(40.339 -62.04)"><path id="Path_25" data-name="Path 25" d="M0 0l1.07-1.766h2.248a83.258 83.258 0 01-.8 10.436H-.963l-1.178-5.459a11.731 11.731 0 00-6.422-2.034c-6.154 0-11.131 4.282-11.131 15.253 0 9.1 3.853 16.323 11.666 16.323a10.481 10.481 0 006.155-1.98l1.605-5.513h3.854c0 3.746-.215 6.1-.321 7.653A30.009 30.009 0 01-8.723 35.7c-12.1 0-18.571-8.3-18.571-18.463 0-10.543 7.118-19 19.106-19A19.061 19.061 0 010 0" fill="#fff"/></g><g id="Group_30" data-name="Group 30" transform="translate(75.927 -63.271)"><path id="Path_26" data-name="Path 26" d="M0 0a85.085 85.085 0 01-.8 9.9h-3.374l-1.178-6.689-11.131-.268-.268 13.487 5.994-.214 1.5-4.978h2.836l-.268 5.245v2.943l.268 5.192h-2.837l-1.442-4.924-6.048-.214.268 13.968 12.2-.268 1.712-6.689h3.745a78.848 78.848 0 01-.642 9.9h-28.9v-2.675l4.121-.536.267-13.754v-2.943l-.267-13.272-4.121-.535V0z" fill="#fff"/></g></g></g></svg>